<?xml version="1.0" encoding="utf-8"?>
<!-- Generator: Adobe Illustrator 24.3.0, SVG Export Plug-In . SVG Version: 6.00 Build 0)  -->
<svg version="1.1" id="Layer_1" xmlns="http://www.w3.org/2000/svg" xmlns:xlink="http://www.w3.org/1999/xlink" x="0px" y="0px"
	 viewBox="0 0 334.4 99.9" style="enable-background:new 0 0 334.4 99.9;" xml:space="preserve">
<style type="text/css">
	.st0{fill:#FEFEFE;}
</style>
<path class="st0" d="M0,34.1V23.5h22.2v10.6H0z"/>
<path class="st0" d="M42.9,10.8v10.7h24v10.1h-24v19.5H31.8V0.7h38.4v10.1H42.9z"/>
<path class="st0" d="M79,51.1V0.7h38v9.9H90v10.2h23.8v9.9H90.1v10.6h27.4v9.9H79z"/>
<path class="st0" d="M145.2,51.8c-7.9,0-15.5-2.8-21.4-8.1l6.5-7.9c4.5,3.7,9.3,6.1,15,6.1c4.5,0,7.3-1.8,7.3-4.8v-0.1
	c0-2.8-1.7-4.2-10.1-6.4c-10.1-2.6-16.7-5.4-16.7-15.4v-0.1C125.8,6,133.2,0,143.5,0c6.8-0.1,13.4,2.2,18.7,6.4l-5.8,8.4
	c-4.5-3.1-8.9-5-13.1-5s-6.5,1.9-6.5,4.4v0.1c0,3.3,2.2,4.4,10.9,6.6c10.2,2.7,16,6.3,16,15.1v0.1C163.8,46.2,156.1,51.8,145.2,51.8
	z"/>
<path class="st0" d="M195.1,10.9v40.2H184V10.9h-15.3V0.7h41.8v10.2H195.1z"/>
<path class="st0" d="M250,51.1l-4.6-11.3h-21.3l-4.6,11.3h-11.3l21.6-50.7H240l21.6,50.7H250z M234.8,13.7L228,30h13.4L234.8,13.7z"
	/>
<path class="st0" d="M286.6,51.8c-7.9,0-15.5-2.8-21.4-8.1l6.6-7.9c4.5,3.7,9.3,6.1,15,6.1c4.5,0,7.3-1.8,7.3-4.8v-0.1
	c0-2.8-1.7-4.2-10.2-6.4c-10.2-2.6-16.7-5.4-16.7-15.4v-0.1C267.2,6,274.5,0,284.8,0c6.8-0.1,13.4,2.2,18.7,6.4l-5.8,8.4
	c-4.5-3.1-8.8-5-13.1-5s-6.5,1.9-6.5,4.4v0.1c0,3.3,2.2,4.4,10.9,6.6c10.2,2.7,16,6.3,16,15.1v0.1C305.1,46.2,297.4,51.8,286.6,51.8
	z"/>
<path class="st0" d="M312.3,34.1V23.5h22.2v10.6H312.3z"/>
<path class="st0" d="M16.2,99.3H0v-34h15.8c6.9,0,11.2,3.4,11.2,8.8v0.1c0.1,3.1-1.7,6-4.5,7.3c3.9,1.5,6.4,3.8,6.4,8.4v0.1
	C28.9,96.2,23.8,99.3,16.2,99.3z M19.6,75.3c0-2.2-1.8-3.5-4.9-3.5H7.3V79h6.9c3.3,0,5.4-1.1,5.4-3.6V75.3z M21.5,88.9
	c0-2.3-1.7-3.7-5.5-3.7H7.3v7.5h8.9C19.5,92.7,21.5,91.6,21.5,88.9L21.5,88.9z"/>
<path class="st0" d="M60.4,99.3l-3.1-7.6H42.9l-3.1,7.6h-7.6L46.8,65h6.9l14.6,34.2H60.4z M50.1,74l-4.5,11h9L50.1,74z"/>
<path class="st0" d="M73.8,99.3v-34h7.5v34H73.8z"/>
<path class="st0" d="M106.1,99.9c-10.6,0-17.9-7.4-17.9-17.5v-0.1c-0.1-9.6,7.7-17.5,17.3-17.6c0.2,0,0.3,0,0.5,0
	c6.1,0,9.8,1.7,13.4,4.7l-4.7,5.7c-2.4-2.3-5.6-3.5-8.9-3.5c-5.4,0-9.8,4.8-9.8,10.6v0.1c0,6.2,4.3,10.8,10.3,10.8
	c2.5,0.1,4.9-0.6,7-2v-4.9h-7.5v-6.5h14.8v14.8C116.6,98,111.4,99.9,106.1,99.9z"/>
<path class="st0" d="M128.1,99.3v-34h7.5v34H128.1z"/>
<path class="st0" d="M169.4,99.3l-3.1-7.6h-14.4l-3.1,7.6h-7.6L155.8,65h6.9l14.6,34.2H169.4z M159.1,74l-4.5,11h9L159.1,74z"/>
<path class="st0" d="M209,99.3V77.1l-9.6,14.5h-0.2l-9.5-14.4v22h-7.3v-34h8.1l8.9,14.4l8.9-14.4h8.1v34L209,99.3z"/>
<path class="st0" d="M249.9,99.3l-3.1-7.6h-14.4l-3.1,7.6h-7.6L236.3,65h6.9l14.6,34.2H249.9z M239.6,74l-4.5,11h9L239.6,74z"/>
<path class="st0" d="M274.6,99.8c-5.3,0-10.4-1.9-14.4-5.4l4.4-5.3c3.1,2.5,6.3,4.1,10.2,4.1c3.1,0,4.9-1.2,4.9-3.2v-0.1
	c0-1.9-1.2-2.9-6.8-4.3c-6.8-1.8-11.3-3.6-11.3-10.4v0c0-6.2,5-10.2,11.9-10.2c4.6-0.1,9,1.4,12.6,4.2l-3.9,5.6
	c-3-2.1-6-3.4-8.8-3.4s-4.4,1.3-4.4,3v0.1c0,2.2,1.5,3,7.3,4.5c6.9,1.8,10.8,4.3,10.8,10.2v0.1C287,96,281.9,99.8,274.6,99.8z"/>
<path class="st0" d="M293.9,99.3v-34h7.5v34H293.9z"/>
<path class="st0" d="M322,99.8c-5.3,0-10.4-1.9-14.4-5.4L312,89c3.1,2.5,6.3,4.1,10.1,4.1c3.1,0,4.9-1.2,4.9-3.2v-0.1
	c0-1.9-1.2-2.9-6.8-4.3c-6.8-1.8-11.3-3.6-11.3-10.4v0c0-6.2,5-10.2,11.9-10.2c4.6-0.1,9,1.4,12.6,4.2l-3.9,5.6
	c-3-2.1-6-3.4-8.8-3.4s-4.4,1.3-4.4,3v0.1c0,2.2,1.5,3,7.3,4.5c6.9,1.8,10.8,4.3,10.8,10.2v0.1C334.4,96,329.3,99.8,322,99.8z"/>
</svg>
